<?xml version="1.0" encoding="UTF-8" standalone="no"?>
<!-- Created with Inkscape (http://www.inkscape.org/) -->

<svg
   xmlns:dc="http://purl.org/dc/elements/1.1/"
   xmlns:cc="http://creativecommons.org/ns#"
   xmlns:rdf="http://www.w3.org/1999/02/22-rdf-syntax-ns#"
   xmlns:svg="http://www.w3.org/2000/svg"
   xmlns="http://www.w3.org/2000/svg"
   xmlns:sodipodi="http://sodipodi.sourceforge.net/DTD/sodipodi-0.dtd"
   xmlns:inkscape="http://www.inkscape.org/namespaces/inkscape"
   width="121.50928mm"
   height="80.088348mm"
   viewBox="0 0 121.50929 80.088349"
   version="1.1"
   id="svg4225"
   sodipodi:docname="LOGO.svg"
   inkscape:version="0.92.1 r15371">
  <defs
     id="defs4219">
    <clipPath
       clipPathUnits="userSpaceOnUse"
       id="clipPath3882">
      <path
         d="M 0,800 H 800 V 0 H 0 Z"
         id="path3880"
         inkscape:connector-curvature="0" />
    </clipPath>
    <clipPath
       clipPathUnits="userSpaceOnUse"
       id="clipPath3938">
      <path
         d="M 0,800 H 800 V 0 H 0 Z"
         id="path3936"
         inkscape:connector-curvature="0" />
    </clipPath>
  </defs>
  <sodipodi:namedview
     id="base"
     pagecolor="#ffffff"
     bordercolor="#666666"
     borderopacity="1.0"
     inkscape:pageopacity="0.0"
     inkscape:pageshadow="2"
     inkscape:zoom="0.35"
     inkscape:cx="398.19525"
     inkscape:cy="-140.08052"
     inkscape:document-units="mm"
     inkscape:current-layer="g4168"
     showgrid="false"
     inkscape:window-width="1366"
     inkscape:window-height="706"
     inkscape:window-x="-8"
     inkscape:window-y="-8"
     inkscape:window-maximized="1"
     inkscape:snap-bbox="true"
     fit-margin-top="0"
     fit-margin-left="0"
     fit-margin-right="0"
     fit-margin-bottom="0" />
  <metadata
     id="metadata4222">
    <rdf:RDF>
      <cc:Work
         rdf:about="">
        <dc:format>image/svg+xml</dc:format>
        <dc:type
           rdf:resource="http://purl.org/dc/dcmitype/StillImage" />
        <dc:title></dc:title>
      </cc:Work>
    </rdf:RDF>
  </metadata>
  <g
     inkscape:label="Capa 1"
     inkscape:groupmode="layer"
     id="layer1"
     transform="translate(-0.47750741,-1.443918)">
    <g
       transform="matrix(0.35277777,0,0,-0.35277777,-143.31426,250.46964)"
       id="g4168">
      <text
         y="-531.24664"
         x="431.03476"
         id="text3874"
         style="font-variant:normal;font-weight:normal;font-stretch:normal;font-size:31.91797447px;font-family:Chivo;-inkscape-font-specification:Chivo-Regular;writing-mode:lr-tb;fill:#c3aa84;fill-opacity:1;fill-rule:nonzero;stroke:none;stroke-width:0.95314246"
         transform="scale(0.95314246,-1.0491611)">
        <tspan
           style="stroke-width:0.95314246"
           id="tspan3872"
           sodipodi:role="line"
           y="-531.24664"
           x="431.03476">LINA M. PALOMINO C.</tspan>
      </text>
      <g
         id="g3876">
        <g
           clip-path="url(#clipPath3882)"
           id="g3878">
          <g
             transform="translate(566.9609,538.1357)"
             id="g3884">
            <path
               inkscape:connector-curvature="0"
               id="path3886"
               style="fill:#c3aa84;fill-opacity:1;fill-rule:nonzero;stroke:none"
               d="M 0,0 -125.71,1.395 0,2.791 Z" />
          </g>
          <g
             transform="translate(592.6719,540.9263)"
             id="g3888">
            <path
               inkscape:connector-curvature="0"
               id="path3890"
               style="fill:#c3aa84;fill-opacity:1;fill-rule:nonzero;stroke:none"
               d="M 0,0 125.712,-1.396 0,-2.791 Z" />
          </g>
          <g
             transform="translate(601.4053,500.0146)"
             id="g3892">
            <path
               inkscape:connector-curvature="0"
               id="path3894"
               style="fill:#c3aa84;fill-opacity:1;fill-rule:nonzero;stroke:none"
               d="m 0,0 c -0.344,1.889 -0.984,3.709 -1.928,5.373 -2.586,4.551 -9.976,9.437 -16.136,7.056 l 0.381,-0.983 c 4.67,1.805 10.328,-1.177 13.4,-4.623 -0.696,-3.161 -3.485,-4.671 -5.184,-7.243 -0.368,-0.558 -1.157,-3.801 -1.345,-3.873 7.035,2.775 7.071,8.565 6.795,10.806 0.461,-0.551 0.861,-1.109 1.171,-1.659 0.721,-1.27 1.249,-2.635 1.598,-4.056 -0.182,-1.359 -0.586,-2.815 -0.838,-3.618 -1.117,-3.534 -4.04,-6.033 -5.027,-9.689 -0.715,-2.652 -1.474,-6.815 1.275,-8.628 0,0 10.287,7.64 5.838,21.137" />
          </g>
          <g
             transform="translate(560.1572,505.3877)"
             id="g3896">
            <path
               inkscape:connector-curvature="0"
               id="path3898"
               style="fill:#c3aa84;fill-opacity:1;fill-rule:nonzero;stroke:none"
               d="M 0,0 C -0.942,-1.664 -1.584,-3.484 -1.93,-5.373 -6.379,-18.87 3.905,-26.51 3.905,-26.51 c 2.752,1.813 1.992,5.976 1.279,8.628 -0.988,3.656 -3.909,6.155 -5.025,9.689 -0.255,0.803 -0.66,2.259 -0.841,3.618 0.349,1.421 0.878,2.786 1.599,4.056 C 1.229,0.031 1.625,0.589 2.089,1.14 1.812,-1.101 1.848,-6.891 8.883,-9.666 8.695,-9.594 7.907,-6.351 7.536,-5.793 5.84,-3.221 3.05,-1.711 2.354,1.45 5.426,4.896 11.082,7.878 15.756,6.073 l 0.38,0.983 C 9.974,9.437 2.585,4.551 0,0" />
          </g>
          <g
             transform="translate(579.8076,487.2046)"
             id="g3900">
            <path
               inkscape:connector-curvature="0"
               id="path3902"
               style="fill:#c3aa84;fill-opacity:1;fill-rule:nonzero;stroke:none"
               d="m 0,0 c -2.023,2.408 -4.412,6.181 -4.412,10.061 0,4.061 2.52,7.803 4.422,10.048 C 1.908,17.864 4.431,14.122 4.431,10.061 4.431,5.992 1.897,2.242 0,0 m 0.686,24.023 c 1.064,6.061 3.006,17.316 3.006,18.794 0,0.979 -0.383,1.867 -1.005,2.526 2.694,1.067 4.602,3.691 4.602,6.765 0,4.02 -3.26,7.28 -7.279,7.28 -4.021,0 -7.281,-3.26 -7.281,-7.28 0,-3.073 1.908,-5.697 4.601,-6.765 -0.623,-0.659 -1.006,-1.547 -1.006,-2.526 0,-1.478 1.942,-12.736 3.005,-18.796 -1.86,-1.828 -6.899,-7.386 -6.899,-13.96 0,-8.063 7.58,-14.6 7.58,-14.6 0,0 7.577,6.537 7.577,14.6 0,6.577 -5.042,12.138 -6.901,13.962" />
          </g>
          <g
             transform="translate(613.7432,506.2114)"
             id="g3904">
            <path
               inkscape:connector-curvature="0"
               id="path3906"
               style="fill:#c3aa84;fill-opacity:1;fill-rule:nonzero;stroke:none"
               d="M 0,0 C 0.822,-1.333 2.284,-1.915 3.677,-2.465 2.894,-2.156 2.115,-1.475 1.766,-0.71 0.773,1.454 3.061,3.226 3.397,5.24 3.742,7.302 3.294,9.442 1.683,10.883 2.49,10.161 -0.109,6.222 -0.389,5.531 -1.079,3.817 -0.985,1.597 0,0" />
          </g>
          <g
             transform="translate(637.3994,502.5996)"
             id="g3908">
            <path
               inkscape:connector-curvature="0"
               id="path3910"
               style="fill:#c3aa84;fill-opacity:1;fill-rule:nonzero;stroke:none"
               d="m 0,0 c -0.746,-0.931 -2.285,-1.634 -3.593,-1.933 0.216,0.286 0.42,0.582 0.623,0.874 0.447,0.648 0.87,1.26 1.301,1.579 0.527,0.39 1.433,0.606 1.763,0.288 C 0.183,0.722 0.221,0.637 0.221,0.527 0.221,0.368 0.139,0.17 0,0 m -12.959,19.166 c -0.549,0.452 -1.038,0.991 -1.511,1.512 -0.602,0.662 -1.22,1.347 -1.963,1.843 l -0.002,-0.003 c -0.13,0.109 -0.252,0.222 -0.385,0.33 l -0.081,0.052 c -0.039,0.022 -0.248,0.136 -0.607,0.308 1.19,-0.064 2.385,0.087 3.558,0.237 1.075,0.137 2.092,0.267 3.091,0.239 1.918,-0.057 4.425,-0.526 5.477,-2.448 0.374,-0.686 0.417,-1.521 0.114,-2.237 -0.283,-0.666 -0.833,-1.142 -1.547,-1.341 -1.906,-0.526 -4.766,0.373 -6.144,1.508 M -27.85,13.468 c -0.122,-0.391 -0.254,-0.774 -0.384,-1.155 -0.554,-1.625 -1.125,-3.308 -1.125,-5.11 0,-0.358 0.021,-0.709 0.063,-1.053 -0.996,1.37 -1.587,3.002 -1.587,4.514 0.002,0.606 0.096,1.186 0.279,1.724 0.13,0.375 0.547,0.935 0.953,1.475 0.604,0.81 1.315,1.761 1.676,2.89 0.266,-0.515 0.398,-1.069 0.395,-1.685 0,-0.504 -0.091,-1.043 -0.27,-1.6 m 11.491,16.838 c 0.156,-0.07 0.315,-0.204 0.315,-0.348 0.002,-0.03 -0.004,-0.062 -0.016,-0.096 -0.096,-0.286 -0.693,-0.435 -1.12,-0.369 -0.348,0.055 -0.781,0.283 -1.24,0.526 -0.208,0.109 -0.415,0.22 -0.629,0.32 0.855,0.225 1.968,0.284 2.69,-0.033 M 0.846,1.588 c -0.839,0.808 -2.325,0.419 -3.159,-0.199 -1.096,-0.81 -1.852,-2.602 -2.99,-3.613 -1.335,-0.186 -2.973,0.318 -3.641,1.706 -0.644,1.334 -0.388,3.028 -0.016,4.66 0.692,3.047 0.839,5.782 0.456,8.456 0.946,-0.354 1.99,-0.452 3.047,-0.265 4.669,0.824 6.511,4.878 3.806,8.92 -0.919,1.374 -2.484,1.839 -3.482,2.965 2.194,-2.474 3.082,-7.617 -1.193,-8.424 -1.261,-0.237 -2.533,0.253 -3.657,0.864 1.19,-0.271 2.425,-0.328 3.455,-0.044 1.043,0.289 1.844,0.987 2.257,1.964 0.429,1.016 0.37,2.204 -0.163,3.177 -1.297,2.372 -4.192,2.947 -6.394,3.01 -1.085,0.031 -2.191,-0.11 -3.261,-0.246 -1.847,-0.237 -3.595,-0.46 -5.245,0.127 -1.444,0.513 -2.796,2.063 -2.429,3.469 0.222,0.847 1.07,1.68 1.981,1.667 0.907,-0.013 1.604,-0.853 2.493,-0.992 0.676,-0.107 1.661,0.117 1.904,0.846 0.037,0.11 0.055,0.217 0.053,0.32 0.002,0.446 -0.314,0.816 -0.742,1.003 -2.175,0.956 -6.076,-0.061 -6.737,-2.569 -0.065,-0.249 -0.093,-0.498 -0.094,-0.745 0,-1.061 0.558,-2.091 1.377,-2.873 -1.904,0.6 -4.298,1.177 -7.027,1.433 -6.22,0.583 -15.337,-0.471 -23.462,-8.816 l 0.777,-0.755 c 6.269,6.442 13.856,9.302 22.545,8.497 6.187,-0.573 10.758,-2.907 11.233,-3.157 0.598,-0.486 1.158,-0.994 1.669,-1.51 0.426,-0.431 0.825,-0.88 1.188,-1.33 3.746,-4.658 3.481,-9.42 2.779,-12.299 -0.706,-1.243 -2.945,-3.692 -3.225,-4.015 -0.365,-0.417 -0.753,-0.818 -1.147,-1.215 -1.716,-0.597 -4.469,-1.226 -7.18,-0.448 -0.943,0.517 -2.098,1.843 -2.453,2.294 -1.009,1.279 -1.366,2.514 -1.364,3.75 0.002,1.819 0.779,3.64 1.407,5.608 0.239,0.751 0.372,1.509 0.374,2.256 0,1.138 -0.303,2.244 -0.98,3.258 -1.042,1.559 -2.791,2.326 -4.552,2.806 0.446,-0.751 0.825,-1.597 0.996,-2.453 0.03,-0.155 0.046,-0.307 0.046,-0.458 -0.004,-1.841 -2.17,-3.444 -2.746,-5.129 -0.271,-0.784 -0.395,-1.601 -0.395,-2.423 -0.006,-3.751 2.233,-6.523 5.167,-8.549 3.11,-2.151 6.528,-2.733 10.169,-2.04 -0.082,-0.085 -0.169,-0.169 -0.25,-0.257 -1.598,-1.696 -3.239,-3.565 -3.839,-5.874 -0.528,-2.023 0.012,-4.67 1.436,-6.267 0.612,-0.686 1.371,-1.259 2.212,-1.635 0.331,-0.148 0.835,-0.174 1.132,-0.354 -0.853,0.52 -1.794,1.383 -2.301,2.25 -1.974,3.371 2.622,6.199 4.374,8.307 0.851,1.021 1.549,2.2 2.119,3.454 0.617,-12.102 11.867,-9.278 11.867,-9.278 -0.398,1.796 -2.137,3.181 -3.683,4.005 -1.626,0.867 -3.706,0.646 -5.174,1.783 -0.947,0.735 -1.573,1.839 -2.06,2.913 -0.216,0.476 -0.407,0.977 -0.566,1.493 0.667,1.675 1.129,3.444 1.424,5.165 0.576,1.981 1.082,5.127 0.102,8.593 0.357,-0.452 0.768,-0.833 1.219,-1.144 0.516,-2.793 0.415,-5.636 -0.318,-8.848 -0.223,-0.975 -0.404,-1.977 -0.406,-2.946 0,-0.844 0.138,-1.664 0.5,-2.425 0.456,-0.946 1.296,-1.662 2.268,-2.041 0.835,-0.326 1.868,-0.407 2.936,-0.293 2.151,0.23 4.442,1.247 5.564,2.644 0.286,0.358 0.456,0.784 0.456,1.204 0,0.379 -0.139,0.751 -0.457,1.062" />
          </g>
          <g
             transform="translate(542.1377,505.2065)"
             id="g3912">
            <path
               inkscape:connector-curvature="0"
               id="path3914"
               style="fill:#c3aa84;fill-opacity:1;fill-rule:nonzero;stroke:none"
               d="m 0,0 c 1.451,0.375 2.972,0.771 3.955,1.992 1.174,1.462 1.542,3.654 1.07,5.44 -0.19,0.72 -2.282,4.951 -1.39,5.567 C 1.857,11.77 1.147,9.702 1.233,7.613 1.316,5.572 3.366,3.531 2.114,1.505 1.673,0.791 0.816,0.21 0,0" />
          </g>
          <g
             transform="translate(541.7803,527.1763)"
             id="g3916">
            <path
               inkscape:connector-curvature="0"
               id="path3918"
               style="fill:#c3aa84;fill-opacity:1;fill-rule:nonzero;stroke:none"
               d="m 0,0 -0.087,-0.043 c -0.144,-0.091 -0.281,-0.187 -0.425,-0.28 v 0.005 c -0.797,-0.401 -1.498,-1.003 -2.176,-1.587 -0.536,-0.459 -1.087,-0.932 -1.687,-1.314 -1.508,-0.955 -4.458,-1.491 -6.281,-0.734 -0.687,0.286 -1.173,0.827 -1.372,1.523 -0.211,0.748 -0.064,1.571 0.391,2.206 1.282,1.776 3.83,1.932 5.739,1.749 0.996,-0.096 1.988,-0.35 3.039,-0.62 C -1.718,0.611 -0.549,0.312 0.64,0.229 0.265,0.103 0.039,0.017 0,0 m 9.625,-9.097 c 0.075,0.611 0.272,1.146 0.602,1.624 0.216,-1.166 0.805,-2.197 1.304,-3.076 0.334,-0.587 0.681,-1.194 0.762,-1.582 0.116,-0.557 0.138,-1.145 0.062,-1.745 -0.186,-1.501 -0.974,-3.047 -2.134,-4.282 0.088,0.336 0.152,0.681 0.197,1.036 0.221,1.789 -0.137,3.53 -0.485,5.212 -0.08,0.392 -0.163,0.789 -0.239,1.192 -0.107,0.576 -0.131,1.121 -0.069,1.621 M -19.609,-20.63 c -0.117,0.187 -0.174,0.392 -0.154,0.55 0.013,0.109 0.06,0.189 0.161,0.265 0.367,0.273 1.238,-0.053 1.714,-0.507 0.386,-0.368 0.73,-1.028 1.095,-1.726 0.163,-0.315 0.33,-0.635 0.509,-0.945 -1.26,0.457 -2.703,1.347 -3.325,2.363 M 2.388,6.875 C 1.902,6.691 1.444,6.519 1.093,6.508 0.66,6.493 0.089,6.714 0.029,7.01 0.022,7.046 0.021,7.08 0.023,7.108 0.042,7.252 0.215,7.365 0.381,7.415 1.137,7.64 2.234,7.444 3.053,7.115 2.83,7.041 2.606,6.958 2.388,6.875 M 11.974,1.833 C 9.233,1.916 6.787,1.642 4.822,1.283 5.731,1.957 6.416,2.909 6.545,3.963 6.577,4.208 6.577,4.459 6.544,4.713 6.198,7.285 2.454,8.776 0.178,8.098 -0.27,7.965 -0.629,7.637 -0.685,7.195 -0.696,7.092 -0.694,6.983 -0.67,6.87 -0.52,6.119 0.432,5.773 1.116,5.794 2.012,5.823 2.81,6.57 3.71,6.47 4.617,6.371 5.356,5.438 5.47,4.57 5.662,3.131 4.126,1.759 2.63,1.429 0.919,1.051 -0.785,1.49 -2.591,1.954 c -1.044,0.267 -2.124,0.545 -3.204,0.648 -2.193,0.209 -5.138,0 -6.719,-2.193 -0.649,-0.901 -0.857,-2.072 -0.552,-3.134 0.288,-1.021 0.996,-1.811 1.994,-2.228 0.986,-0.408 2.218,-0.505 3.434,-0.385 -1.19,-0.467 -2.515,-0.795 -3.735,-0.403 -4.147,1.331 -2.623,6.324 -0.14,8.507 -1.133,-0.995 -2.742,-1.26 -3.824,-2.511 -3.183,-3.676 -1.859,-7.925 2.671,-9.323 1.024,-0.316 2.074,-0.349 3.059,-0.115 -0.713,-2.605 -0.91,-5.337 -0.597,-8.447 0.167,-1.665 0.209,-3.378 -0.596,-4.623 -0.834,-1.293 -2.521,-1.59 -3.823,-1.241 -1.005,1.144 -1.533,3.017 -2.518,3.957 -0.754,0.716 -2.178,1.286 -3.109,0.587 -0.356,-0.267 -0.539,-0.62 -0.586,-0.997 -0.052,-0.415 0.063,-0.861 0.302,-1.25 0.939,-1.526 3.089,-2.819 5.193,-3.313 1.046,-0.245 2.081,-0.293 2.949,-0.073 1.011,0.255 1.934,0.863 2.503,1.742 0.457,0.71 0.693,1.508 0.797,2.345 0.12,0.964 0.063,1.979 -0.037,2.974 -0.328,3.278 -0.078,6.112 0.782,8.819 0.486,0.253 0.941,0.58 1.35,0.985 -1.401,-3.318 -1.288,-6.503 -0.964,-8.541 0.081,-1.744 0.32,-3.556 0.773,-5.3 -0.22,-0.493 -0.475,-0.967 -0.747,-1.413 -0.616,-1.004 -1.373,-2.023 -2.403,-2.633 -1.598,-0.948 -3.636,-0.47 -5.356,-1.129 -1.636,-0.625 -3.533,-1.784 -4.15,-3.517 0,0 10.81,-4.197 12.923,7.733 0.413,-1.315 0.957,-2.569 1.676,-3.689 1.479,-2.309 5.687,-5.685 3.31,-8.785 -0.61,-0.796 -1.651,-1.538 -2.56,-1.946 0.313,0.141 0.818,0.104 1.165,0.21 0.881,0.269 1.707,0.744 2.397,1.348 1.612,1.409 2.476,3.968 2.204,6.04 -0.311,2.367 -1.71,4.424 -3.083,6.307 -0.071,0.096 -0.145,0.19 -0.217,0.285 3.529,-1.139 6.99,-0.984 10.342,0.763 3.166,1.647 5.729,4.12 6.192,7.842 0.099,0.816 0.076,1.642 -0.092,2.454 -0.364,1.744 -2.316,3.602 -2.089,5.429 0.018,0.151 0.05,0.3 0.101,0.449 0.275,0.829 0.757,1.622 1.293,2.311 C 11.91,-3.756 10.081,-4.302 8.85,-5.72 8.052,-6.642 7.618,-7.703 7.477,-8.831 c -0.091,-0.741 -0.055,-1.51 0.089,-2.285 0.381,-2.031 0.926,-3.935 0.705,-5.739 -0.153,-1.228 -0.662,-2.408 -1.821,-3.552 -0.408,-0.403 -1.719,-1.576 -2.72,-1.972 -2.786,-0.435 -5.441,0.53 -7.068,1.335 -0.342,0.442 -0.677,0.887 -0.987,1.347 -0.238,0.355 -2.159,3.067 -2.704,4.387 -0.339,2.944 -0.01,7.702 4.284,11.857 0.415,0.401 0.869,0.797 1.345,1.171 0.568,0.45 1.188,0.884 1.842,1.291 C 0.941,-0.8 5.77,0.948 11.98,0.75 20.7,0.472 27.873,-3.305 33.297,-10.475 l 0.864,0.652 C 27.133,-0.536 18.219,1.642 11.974,1.833" />
          </g>
          <g
             transform="translate(457.1875,616.5898)"
             id="g3920">
            <path
               inkscape:connector-curvature="0"
               id="path3922"
               style="fill:#c3aa84;fill-opacity:1;fill-rule:nonzero;stroke:none"
               d="m 0,0 c 0.165,-0.146 0.478,-0.403 0.88,-0.733 3.944,-3.22 4.91,-4.426 5.028,-4.87 -0.001,10e-4 -0.019,0.073 0.007,0.189 l 2.137,-0.451 c 0.949,4.503 2.341,7.372 6.33,7.765 3.533,0.348 6.918,-1.882 8.238,-5.421 1.193,-3.198 0.759,-6.642 -1.189,-9.448 -2.14,-3.08 -5.709,-4.918 -9.552,-4.918 h -0.006 c -4.49,0.002 -8.586,2.201 -11.235,6.034 -2.655,3.839 -3.305,8.599 -1.742,12.732 0.013,0.037 0.025,0.073 0.041,0.109 C -0.704,0.647 -0.351,0.314 0,0 m -42.906,-17.846 c -0.225,-1.647 -1.429,-3.664 -2.584,-3.699 l -0.049,-10e-4 c -1.01,0 -1.224,1.329 -1.257,1.594 -0.365,2.992 1.08,7.023 2.849,9.915 0.135,-0.896 0.31,-1.788 0.482,-2.67 0.381,-1.953 0.741,-3.799 0.559,-5.139 M 44.225,2.096 c 0.56,-1.202 0.627,-3.078 -0.134,-3.603 -0.203,-0.14 -0.354,-0.156 -0.448,-0.156 -0.347,0 -0.775,0.254 -1.115,0.66 -1.544,1.847 -2.319,5.178 -2.385,7.883 0.478,-0.541 0.982,-1.064 1.479,-1.581 1.102,-1.144 2.145,-2.226 2.603,-3.203 M 67.55,37.163 C 51.204,37.163 37.903,23.864 37.903,7.517 h 0.053 c -0.054,-3.291 0.856,-7.475 2.897,-9.92 0.729,-0.874 1.746,-1.444 2.79,-1.444 0.566,0 1.141,0.167 1.686,0.542 1.939,1.336 1.761,4.427 0.873,6.326 -1.167,2.495 -4.424,4.716 -5.961,7.378 1.446,13.793 13.141,24.58 27.309,24.58 15.143,0 27.464,-12.32 27.464,-27.462 0,-15.144 -12.321,-27.464 -27.464,-27.464 -13.686,0 -20.765,8.059 -28.259,16.591 -4.162,4.738 -8.468,9.638 -14.075,13.377 -4.684,3.122 -10.985,3.86 -16.854,1.973 -4.345,-1.397 -7.874,-4.041 -10.06,-7.457 -0.751,0.64 -1.532,1.228 -2.367,1.695 -8.149,4.549 -20.89,4.289 -29.635,-0.605 -4.332,-2.424 -7.311,-5.733 -8.814,-9.728 -0.986,-0.902 -1.902,-1.872 -2.691,-2.919 -2.557,-3.396 -4.832,-8.96 -4.308,-13.265 0.265,-2.145 1.684,-3.996 3.974,-3.996 0.042,0 0.086,0 0.129,10e-4 2.944,0.09 4.86,3.461 5.214,6.064 0.378,2.755 -0.794,6.244 -1.164,9.508 0.7,6.586 5.07,10.384 8.726,12.43 8.005,4.477 20.086,4.743 27.503,0.602 0.807,-0.449 1.594,-1.071 2.364,-1.753 -0.138,-0.302 -0.265,-0.609 -0.382,-0.92 -1.815,-4.805 -1.072,-10.317 1.99,-14.745 3.061,-4.432 7.812,-6.975 13.032,-6.976 h 0.006 c 4.558,0 8.799,2.188 11.345,5.854 2.364,3.404 2.889,7.58 1.443,11.458 C 22.999,1.708 18.687,4.517 14.169,4.074 9.636,3.626 7.648,0.583 6.563,-2.873 5.638,-1.889 4.244,-0.66 2.262,0.958 1.893,1.261 1.606,1.493 1.457,1.627 1.052,1.99 0.641,2.38 0.224,2.778 0.13,2.866 0.038,2.954 -0.057,3.042 1.836,6.185 5.04,8.631 9.03,9.914 c 5.242,1.685 10.839,1.045 14.974,-1.71 5.37,-3.579 9.578,-8.369 13.645,-13.001 7.83,-8.914 15.227,-17.333 29.901,-17.333 16.347,0 29.646,13.298 29.646,29.647 0,16.347 -13.299,29.646 -29.646,29.646" />
          </g>
          <g
             transform="translate(749.2412,596.6392)"
             id="g3924">
            <path
               inkscape:connector-curvature="0"
               id="path3926"
               style="fill:#c3aa84;fill-opacity:1;fill-rule:nonzero;stroke:none"
               d="m 0,0 c -0.031,-0.267 -0.246,-1.595 -1.256,-1.595 h -0.047 c -1.158,0.036 -2.361,2.053 -2.586,3.701 -0.185,1.339 0.177,3.185 0.561,5.139 0.169,0.882 0.343,1.773 0.48,2.668 C -1.079,7.021 0.365,2.99 0,0 M -47.433,8.098 C -50.081,4.265 -54.178,2.066 -58.67,2.063 h -0.002 c -3.843,0 -7.415,1.839 -9.553,4.918 -1.95,2.807 -2.383,6.25 -1.191,9.448 1.23,3.298 4.253,5.458 7.515,5.458 0.239,0 0.482,-0.012 0.722,-0.036 3.99,-0.393 5.382,-3.263 6.335,-7.767 l 2.135,0.454 c 0.025,-0.117 0.006,-0.189 0.006,-0.19 0.118,0.444 1.081,1.648 5.022,4.866 0.406,0.331 0.721,0.589 0.886,0.738 0.35,0.313 0.703,0.645 1.066,0.986 0.012,-0.035 0.027,-0.072 0.039,-0.108 1.561,-4.134 0.909,-8.893 -1.743,-12.732 m -41.889,10.851 c -0.342,-0.407 -0.769,-0.661 -1.116,-0.661 -0.095,0 -0.244,0.016 -0.449,0.156 -0.76,0.524 -0.695,2.4 -0.133,3.602 0.457,0.978 1.499,2.059 2.602,3.204 0.497,0.517 1.002,1.04 1.481,1.581 -0.066,-2.707 -0.845,-6.036 -2.385,-7.882 m 87.733,-6.018 c -0.792,1.046 -1.708,2.017 -2.694,2.919 -1.501,3.994 -4.479,7.303 -8.813,9.728 -8.743,4.894 -21.483,5.153 -29.633,0.605 -0.836,-0.467 -1.619,-1.056 -2.369,-1.696 -2.184,3.416 -5.715,6.06 -10.061,7.457 -5.869,1.886 -12.169,1.15 -16.851,-1.972 -5.611,-3.739 -9.914,-8.639 -14.077,-13.378 -7.494,-8.531 -14.571,-16.591 -28.258,-16.591 -15.143,0 -27.465,12.321 -27.465,27.464 0,15.142 12.322,27.463 27.465,27.463 14.169,0 25.865,-10.787 27.31,-24.582 -1.539,-2.661 -4.795,-4.882 -5.964,-7.376 -0.886,-1.899 -1.064,-4.991 0.873,-6.326 0.547,-0.375 1.121,-0.542 1.688,-0.542 1.046,0 2.06,0.569 2.792,1.443 2.039,2.446 2.947,6.63 2.893,9.92 h 0.053 c 0,16.347 -13.298,29.647 -29.645,29.647 -16.348,0 -29.646,-13.3 -29.646,-29.647 0,-16.348 13.298,-29.647 29.646,-29.647 14.672,0 22.071,8.42 29.9,17.333 4.068,4.633 8.274,9.423 13.645,13.001 4.135,2.756 9.731,3.395 14.975,1.711 3.99,-1.283 7.192,-3.729 9.085,-6.872 -0.089,-0.088 -0.182,-0.174 -0.272,-0.26 -0.421,-0.399 -0.834,-0.791 -1.24,-1.155 -0.15,-0.135 -0.438,-0.369 -0.811,-0.672 -1.978,-1.617 -3.371,-2.846 -4.295,-3.828 -1.084,3.456 -3.073,6.499 -7.607,6.947 -4.514,0.443 -8.831,-2.366 -10.497,-6.833 -1.445,-3.877 -0.92,-8.053 1.443,-11.457 2.547,-3.666 6.789,-5.855 11.347,-5.855 h 0.003 c 5.222,0.002 9.97,2.544 13.033,6.977 3.06,4.428 3.803,9.94 1.989,14.745 -0.118,0.311 -0.245,0.617 -0.382,0.919 0.771,0.682 1.558,1.306 2.363,1.753 7.417,4.143 19.501,3.877 27.504,-0.603 3.657,-2.046 8.03,-5.843 8.726,-12.43 -0.372,-3.264 -1.543,-6.752 -1.163,-9.506 0.353,-2.603 2.27,-5.974 5.214,-6.064 0.043,-0.002 0.085,-0.002 0.129,-0.002 2.289,0 3.708,1.852 3.973,3.997 0.526,4.304 -1.75,9.869 -4.306,13.265" />
          </g>
        </g>
      </g>
      <text
         id="text3930"
         style="font-variant:normal;font-weight:normal;font-stretch:normal;font-size:64.86759949px;font-family:Chivo;-inkscape-font-specification:Chivo-Regular;writing-mode:lr-tb;fill:#c3aa84;fill-opacity:1;fill-rule:nonzero;stroke:none"
         transform="matrix(1,0,0,-1,563.3862,616.4385)">
        <tspan
           id="tspan3928"
           y="0"
           x="0">L</tspan>
      </text>
      <g
         id="g3932">
        <g
           clip-path="url(#clipPath3938)"
           id="g3934">
          <g
             transform="translate(657.3955,648.4487)"
             id="g3940">
            <path
               inkscape:connector-curvature="0"
               id="path3942"
               style="fill:#c3aa84;fill-opacity:1;fill-rule:nonzero;stroke:none"
               d="m 0,0 c -0.094,-0.2 -0.228,-0.238 -0.34,-0.247 -0.446,-0.036 -0.996,0.686 -1.152,1.309 -0.131,0.506 -0.07,1.23 -0.007,1.996 0.027,0.346 0.059,0.695 0.069,1.046 C -0.625,3.07 0.103,1.584 0.091,0.42 0.088,0.263 0.06,0.119 0,0 m -18.79,8.116 c -0.481,-2.61 -2.728,-7.441 -5.978,-7.328 -0.687,0.023 -1.274,0.29 -1.644,0.749 -0.362,0.445 -0.496,1.049 -0.383,1.699 0.233,1.334 1.515,2.525 3.915,3.641 1.322,0.617 2.755,1.157 4.15,1.57 -0.02,-0.11 -0.04,-0.221 -0.06,-0.331 m -21.518,15.327 c 0.01,0.205 0.026,0.4 0.052,0.581 0.724,5.204 2.325,8.86 4.757,10.869 1.121,0.925 2.691,1.402 4.353,1.906 1.012,0.306 2.083,0.631 3.115,1.086 -0.218,-0.745 -0.483,-1.472 -0.798,-2.178 -0.89,-2.004 -2.101,-3.684 -3.502,-4.859 -0.296,-0.248 -0.601,-0.501 -0.909,-0.759 -2.3,-1.914 -4.924,-4.1 -7.068,-6.646 m 4.564,-37.752 c 0,-23.066 -18.768,-41.834 -41.834,-41.834 -23.068,0 -41.834,18.768 -41.834,41.834 0,23.069 18.766,41.836 41.834,41.836 23.066,0 41.834,-18.767 41.834,-41.836 m -86.174,44.398 c -0.309,0.258 -0.614,0.511 -0.909,0.759 -1.402,1.175 -2.611,2.855 -3.504,4.86 -0.311,0.705 -0.578,1.432 -0.794,2.177 1.03,-0.455 2.1,-0.78 3.113,-1.086 1.662,-0.504 3.232,-0.981 4.353,-1.906 2.431,-2.009 4.033,-5.665 4.759,-10.871 0.024,-0.18 0.039,-0.374 0.05,-0.579 -2.142,2.546 -4.767,4.732 -7.068,6.646 M -132.276,6.877 c 2.398,-1.116 3.68,-2.307 3.914,-3.641 0.112,-0.65 -0.023,-1.254 -0.384,-1.699 -0.37,-0.459 -0.956,-0.726 -1.646,-0.749 -3.247,-0.113 -5.494,4.718 -5.976,7.328 -0.021,0.11 -0.04,0.221 -0.058,0.331 1.393,-0.413 2.824,-0.953 4.15,-1.57 m -21.387,-5.815 c -0.159,-0.623 -0.707,-1.345 -1.155,-1.309 -0.113,0.009 -0.244,0.047 -0.341,0.247 -0.057,0.119 -0.086,0.263 -0.088,0.42 -0.012,1.164 0.715,2.65 1.518,3.684 0.014,-0.351 0.042,-0.7 0.071,-1.046 0.063,-0.766 0.123,-1.49 -0.005,-1.996 m 5.762,40.374 c 0.134,0.083 0.592,0.323 0.844,-0.014 l 0.006,-0.01 c 0.277,-0.392 -0.061,-1.27 -0.539,-1.766 -0.384,-0.401 -1.071,-0.756 -1.799,-1.133 -0.326,-0.168 -0.657,-0.341 -0.98,-0.524 0.479,1.308 1.408,2.802 2.468,3.447 m 142.13,-2.923 c -0.726,0.377 -1.415,0.732 -1.798,1.133 -0.477,0.496 -0.814,1.374 -0.539,1.766 l 0.008,0.01 c 0.251,0.337 0.709,0.097 0.843,0.014 1.059,-0.645 1.989,-2.139 2.469,-3.447 -0.323,0.183 -0.655,0.356 -0.983,0.524 M 0.793,2.259 0.802,2.26 c -0.63,3.02 -4.352,5.296 -6.515,6.384 -3.439,1.73 -7.744,2.173 -11.811,1.219 0.083,1.603 -0.095,3.259 -0.502,4.888 0.524,-0.416 1.089,-0.783 1.69,-1.086 2.401,-1.214 5.528,-1.273 8.04,-0.352 1.555,0.57 2.896,1.597 4.448,2.189 0.577,0.222 1.174,0.402 1.781,0.537 0.083,0.019 0.55,0.181 0.631,0.123 l -0.767,0.541 c -5.709,4.947 -11.353,2.027 -11.353,2.027 -3.035,-1.323 -5.184,-0.66 -6.545,0.272 -0.451,0.62 -1.002,1.302 -1.676,2.036 -0.094,0.224 -0.192,0.445 -0.301,0.661 -0.015,0.029 -0.035,0.055 -0.049,0.084 3.927,-1.518 8.638,-2.016 12.146,-0.5 2.142,0.927 4.074,2.598 5.459,4.565 2.753,3.916 2.159,7.441 1.026,11.777 -0.442,1.69 -1.653,3.841 -3.174,4.77 -0.772,0.471 -1.754,0.478 -2.333,-0.301 -0.009,-0.012 -0.018,-0.024 -0.025,-0.036 -0.682,-0.97 -0.091,-2.421 0.649,-3.191 0.437,-0.455 1.067,-0.815 1.736,-1.166 l -0.032,-0.048 c 2.333,-1.513 3.455,-3.666 3.242,-6.225 -0.305,-3.644 -3.303,-7.589 -6.969,-9.176 -3.715,-1.606 -8.909,-0.773 -12.821,1.138 -0.038,0.042 -0.072,0.087 -0.111,0.129 1.455,-0.594 3.041,-0.92 4.616,-0.793 4.081,0.328 6.782,5.512 4.528,9.045 -0.938,1.476 -2.665,2.554 -4.362,2.88 -0.804,0.155 -1.668,0.226 -2.487,0.165 -0.447,-0.034 -0.886,-0.11 -1.306,-0.271 -0.175,-0.065 -0.979,-0.628 -1.101,-0.587 0.004,-0.003 9.972,-3.248 4.717,-8.034 0,0 -1.334,-2.141 -6.098,-1.122 -0.384,0.259 -0.772,0.483 -1.187,0.704 -0.556,0.294 -1.148,0.551 -1.764,0.766 -1.233,0.425 -2.579,0.683 -3.979,0.646 -1.094,-0.026 -2.222,-0.252 -3.279,-0.669 1.308,1.16 2.633,2.24 3.838,3.25 1.745,1.463 3.059,3.424 3.979,5.493 0.698,1.566 1.174,3.219 1.43,4.911 0.064,0.426 -0.052,1.672 0.19,2.017 -2.529,-3.596 -7.818,-3.023 -11.022,-5.669 -3.427,-2.831 -4.788,-7.751 -5.381,-11.984 -0.239,-1.705 0.164,-4.001 0.055,-5.91 -0.047,-0.194 -0.078,-0.391 -0.116,-0.586 -0.399,2.888 -1.138,5.722 -2.607,7.839 -2.665,3.851 -8.664,5.47 -12.848,7.077 0.278,-0.113 0.389,-1.388 0.447,-1.648 1.073,-4.969 5.508,-7.888 9.126,-10.978 1.061,-0.908 2.091,-1.863 3.001,-2.925 1.206,-1.407 2.17,-3.445 2.902,-5.427 -8.025,10.935 -20.963,18.05 -35.536,18.05 -14.573,0 -27.51,-7.116 -35.539,-18.051 0.735,1.982 1.699,4.021 2.904,5.428 0.909,1.062 1.938,2.017 3,2.925 3.617,3.09 8.053,6.009 9.126,10.978 0.057,0.26 0.168,1.535 0.446,1.648 -4.182,-1.607 -10.182,-3.226 -12.848,-7.077 -1.465,-2.117 -2.207,-4.951 -2.606,-7.839 -0.037,0.195 -0.068,0.392 -0.115,0.586 -0.109,1.909 0.295,4.205 0.054,5.91 -0.59,4.233 -1.955,9.153 -5.381,11.984 -3.204,2.646 -8.492,2.073 -11.023,5.669 0.244,-0.345 0.126,-1.591 0.191,-2.017 0.256,-1.692 0.732,-3.345 1.43,-4.911 0.92,-2.069 2.234,-4.03 3.979,-5.493 1.205,-1.01 2.528,-2.09 3.838,-3.25 -1.058,0.417 -2.185,0.643 -3.277,0.669 -1.4,0.037 -2.747,-0.221 -3.981,-0.646 -0.616,-0.215 -1.208,-0.472 -1.764,-0.766 -0.417,-0.221 -0.803,-0.445 -1.185,-0.704 -4.764,-1.019 -6.1,1.122 -6.1,1.122 -5.253,4.786 4.715,8.031 4.718,8.034 -0.123,-0.041 -0.927,0.522 -1.102,0.587 -0.422,0.161 -0.859,0.237 -1.307,0.271 -0.817,0.061 -1.683,-0.01 -2.487,-0.165 -1.694,-0.326 -3.422,-1.404 -4.362,-2.88 -2.255,-3.533 0.447,-8.717 4.529,-9.045 1.574,-0.127 3.161,0.199 4.617,0.793 -0.038,-0.042 -0.073,-0.087 -0.111,-0.129 -3.911,-1.911 -9.104,-2.744 -12.822,-1.138 -3.667,1.587 -6.663,5.532 -6.969,9.176 -0.213,2.559 0.908,4.712 3.242,6.225 l -0.031,0.048 c 0.669,0.351 1.297,0.711 1.738,1.166 0.737,0.77 1.329,2.221 0.646,3.191 -0.007,0.012 -0.016,0.024 -0.023,0.036 -0.582,0.779 -1.563,0.772 -2.335,0.301 -1.521,-0.929 -2.733,-3.08 -3.175,-4.77 -1.132,-4.336 -1.726,-7.861 1.029,-11.777 1.382,-1.967 3.314,-3.638 5.457,-4.565 3.508,-1.516 8.221,-1.018 12.148,0.5 -0.016,-0.029 -0.035,-0.055 -0.05,-0.084 -0.11,-0.216 -0.209,-0.437 -0.3,-0.661 -0.676,-0.734 -1.227,-1.416 -1.68,-2.036 -1.358,-0.932 -3.507,-1.595 -6.543,-0.272 0,0 -5.642,2.92 -11.353,-2.027 l -0.768,-0.541 c 0.082,0.058 0.549,-0.104 0.633,-0.123 0.607,-0.135 1.202,-0.315 1.781,-0.537 1.552,-0.592 2.893,-1.619 4.45,-2.189 2.508,-0.921 5.635,-0.862 8.04,0.352 0.598,0.303 1.162,0.67 1.687,1.086 -0.408,-1.629 -0.583,-3.285 -0.501,-4.888 -4.069,0.954 -8.373,0.511 -11.812,-1.219 -2.16,-1.088 -5.883,-3.364 -6.516,-6.384 l 0.009,-10e-4 c -0.225,-0.627 -0.359,-1.261 -0.354,-1.85 0.001,-0.307 0.069,-0.606 0.197,-0.866 0.217,-0.459 0.625,-0.797 1.205,-0.843 1.136,-0.093 2.015,1.119 2.264,2.103 0.323,1.275 -0.202,3.072 0.016,4.531 1.286,1.095 2.789,1.93 3.653,2.365 3.229,1.624 7.28,2.036 11.117,1.13 0.105,-0.025 0.213,-0.05 0.317,-0.078 0.036,-0.278 0.078,-0.553 0.13,-0.826 0.252,-1.377 0.967,-3.476 2.208,-5.244 1.396,-1.992 3.072,-3.011 4.844,-2.951 1.001,0.036 1.863,0.441 2.433,1.143 0.556,0.685 0.769,1.59 0.602,2.547 -0.4,2.26 -2.766,3.603 -4.51,4.414 -1.506,0.703 -3.15,1.31 -4.729,1.751 -0.129,1.747 0.058,3.573 0.559,5.357 l 0.01,0.047 c 0.003,0.011 0.115,0.562 0.612,1.52 0.09,0.114 0.181,0.229 0.268,0.347 0.384,0.529 0.714,1.089 1.01,1.669 0.03,0.039 0.055,0.076 0.086,0.117 -0.381,-2.251 -0.526,-4.577 1.014,-6.468 0.466,-0.571 1.04,-1.088 1.623,-1.542 0.53,-0.412 1.105,-0.8 1.693,-1.125 2.983,-1.647 7.043,-1.111 8.997,1.883 1.746,2.674 -0.105,5.889 0.463,8.761 0.081,0.402 0.356,1.858 0.95,1.94 -3.799,-0.522 -4.26,-3.879 -5.47,-6.841 -0.396,-0.97 -1.03,-1.966 -1.902,-2.574 -1.006,-0.702 -2.528,-0.137 -3.522,0.357 -0.476,0.242 -0.954,0.582 -1.348,1.053 -0.391,0.47 -0.69,1.075 -0.837,1.794 -0.276,1.452 -0.052,3.324 0.836,4.995 0.218,0.42 0.488,0.818 0.795,1.191 0.151,0.189 0.326,0.357 0.494,0.532 0.176,0.15 0.311,0.289 0.567,0.467 0.391,0.29 0.881,0.58 1.355,0.823 0.484,0.25 0.994,0.464 1.522,0.641 2.103,0.708 4.564,0.774 6.674,-0.333 2.193,-1.079 4.023,-2.96 4.855,-5.368 0.43,-1.194 0.62,-2.493 0.626,-3.807 -0.002,-1.323 -0.168,-2.633 -0.534,-3.924 -0.712,-2.592 -2.063,-5.041 -3.255,-7.576 -1.241,-2.57 -2.074,-5.206 -2.721,-7.813 -0.625,-2.609 -0.961,-5.202 -0.994,-7.666 -0.034,-2.515 0.366,-5.707 0.932,-8.547 3.023,-21.374 21.427,-37.87 43.623,-37.87 22.193,0 40.599,16.496 43.623,37.871 0.565,2.839 0.964,6.031 0.932,8.546 -0.036,2.464 -0.37,5.057 -0.998,7.666 -0.644,2.607 -1.478,5.243 -2.718,7.813 -1.192,2.535 -2.542,4.984 -3.255,7.576 -0.365,1.291 -0.533,2.601 -0.533,3.924 0.006,1.314 0.195,2.613 0.626,3.807 0.831,2.408 2.659,4.289 4.855,5.368 2.108,1.107 4.569,1.041 6.673,0.333 0.528,-0.177 1.038,-0.391 1.521,-0.641 0.474,-0.243 0.965,-0.533 1.355,-0.823 0.257,-0.178 0.393,-0.317 0.565,-0.467 0.171,-0.175 0.344,-0.343 0.495,-0.532 0.307,-0.373 0.579,-0.771 0.794,-1.191 0.89,-1.671 1.115,-3.543 0.837,-4.995 -0.146,-0.719 -0.446,-1.324 -0.838,-1.794 -0.39,-0.471 -0.87,-0.811 -1.347,-1.053 -0.993,-0.494 -2.515,-1.059 -3.521,-0.357 -0.871,0.608 -1.508,1.604 -1.903,2.574 -1.209,2.962 -1.667,6.319 -5.468,6.841 0.595,-0.082 0.868,-1.538 0.948,-1.94 0.569,-2.872 -1.282,-6.087 0.463,-8.761 1.953,-2.994 6.016,-3.53 8.995,-1.883 0.59,0.325 1.165,0.713 1.696,1.125 0.584,0.454 1.157,0.971 1.623,1.542 1.54,1.891 1.395,4.217 1.015,6.468 0.031,-0.041 0.055,-0.078 0.083,-0.117 0.297,-0.58 0.626,-1.14 1.013,-1.669 0.087,-0.118 0.177,-0.233 0.269,-0.347 0.495,-0.958 0.608,-1.509 0.609,-1.52 l 0.011,-0.047 c 0.498,-1.784 0.686,-3.61 0.558,-5.357 -1.577,-0.441 -3.221,-1.048 -4.727,-1.751 -1.745,-0.811 -4.111,-2.154 -4.51,-4.414 -0.167,-0.957 0.047,-1.862 0.601,-2.547 0.572,-0.702 1.433,-1.107 2.435,-1.143 1.771,-0.06 3.446,0.959 4.843,2.951 1.24,1.768 1.956,3.867 2.207,5.244 0.052,0.273 0.095,0.548 0.129,0.826 0.105,0.028 0.212,0.053 0.318,0.078 3.837,0.906 7.888,0.494 11.116,-1.13 0.867,-0.435 2.369,-1.27 3.657,-2.365 0.214,-1.459 -0.311,-3.256 0.012,-4.531 0.249,-0.984 1.13,-2.196 2.265,-2.103 0.58,0.046 0.988,0.384 1.207,0.843 0.126,0.26 0.193,0.559 0.193,0.866 0.006,0.589 -0.129,1.223 -0.353,1.85" />
          </g>
          <g
             transform="translate(598.6982,678.3853)"
             id="g3944">
            <path
               inkscape:connector-curvature="0"
               id="path3946"
               style="fill:#c3aa84;fill-opacity:1;fill-rule:nonzero;stroke:none"
               d="M 0,0 C -0.506,0.298 -1.145,0.603 -1.887,0.942 -2.259,1.111 -2.648,1.305 -3.07,1.485 -3.497,1.65 -3.947,1.823 -4.417,2.003 -5.35,2.391 -6.398,2.692 -7.504,3.028 c -0.552,0.179 -1.138,0.288 -1.725,0.441 -0.211,0.051 -0.425,0.1 -0.638,0.15 0.621,0.802 1.5,1.359 2.507,1.526 1.137,0.189 2.458,-0.483 3.518,0.13 0.912,0.53 1.043,1.841 0.661,2.715 -0.408,0.929 -1.302,1.214 -2.252,1.242 -4.581,0.134 -6.055,-4.249 -6.332,-5.259 -0.394,0.066 -0.785,0.131 -1.182,0.198 -0.65,0.089 -1.314,0.145 -1.98,0.208 -0.333,0.027 -0.672,0.07 -1.002,0.085 l -0.988,0.036 -0.992,0.036 -0.496,0.018 C -18.62,4.559 -18.756,4.549 -18.936,4.546 -19.61,4.521 -20.283,4.495 -20.956,4.47 -21.627,4.451 -22.293,4.354 -22.953,4.299 -23.438,4.256 -23.918,4.2 -24.39,4.127 c -0.373,1.24 -1.913,5.233 -6.287,5.105 -0.952,-0.028 -1.844,-0.313 -2.252,-1.242 -0.384,-0.874 -0.253,-2.185 0.661,-2.715 1.06,-0.613 2.379,0.059 3.516,-0.13 0.936,-0.155 1.766,-0.645 2.374,-1.355 -0.142,-0.025 -0.288,-0.051 -0.43,-0.075 -0.617,-0.138 -1.221,-0.28 -1.81,-0.43 -0.296,-0.074 -0.586,-0.147 -0.873,-0.219 -0.284,-0.088 -0.566,-0.176 -0.841,-0.261 -0.549,-0.175 -1.086,-0.345 -1.605,-0.51 -0.512,-0.176 -0.996,-0.387 -1.463,-0.568 -0.468,-0.19 -0.919,-0.355 -1.338,-0.541 -0.414,-0.2 -0.807,-0.39 -1.175,-0.569 -0.368,-0.179 -0.71,-0.346 -1.026,-0.502 -0.314,-0.16 -0.586,-0.332 -0.84,-0.473 -1.007,-0.586 -1.575,-0.935 -1.575,-0.935 0,0 0.628,0.223 1.715,0.635 0.276,0.101 0.573,0.228 0.904,0.337 0.331,0.109 0.69,0.226 1.07,0.352 0.38,0.126 0.784,0.26 1.209,0.402 0.433,0.123 0.889,0.253 1.363,0.389 0.477,0.128 0.963,0.286 1.479,0.406 0.515,0.12 1.05,0.244 1.598,0.373 0.275,0.063 0.551,0.127 0.832,0.192 0.286,0.05 0.573,0.1 0.864,0.15 0.581,0.107 1.172,0.214 1.773,0.325 1.217,0.145 2.463,0.346 3.746,0.423 0.64,0.042 1.282,0.129 1.931,0.138 0.649,0.014 1.301,0.029 1.95,0.044 l 0.467,0.014 0.497,-0.011 0.992,-0.022 0.989,-0.021 c 0.327,-0.009 0.637,-0.047 0.957,-0.068 0.632,-0.048 1.264,-0.095 1.886,-0.142 0.624,-0.077 1.241,-0.151 1.849,-0.226 0.61,-0.055 1.196,-0.193 1.779,-0.281 0.581,-0.105 1.157,-0.168 1.704,-0.302 1.093,-0.259 2.148,-0.446 3.092,-0.726 0.476,-0.128 0.933,-0.25 1.367,-0.366 0.433,-0.121 0.837,-0.26 1.223,-0.377 0.764,-0.245 1.446,-0.436 1.983,-0.649 1.093,-0.391 1.728,-0.603 1.728,-0.603 0,0 -0.572,0.338 -1.593,0.907" />
          </g>
          <g
             transform="translate(581.9492,684.8447)"
             id="g3948">
            <path
               inkscape:connector-curvature="0"
               id="path3950"
               style="fill:#c3aa84;fill-opacity:1;fill-rule:nonzero;stroke:none"
               d="m 0,0 c 4.061,3.369 5.28,9.381 2.72,13.933 -0.913,1.621 -2.118,3.04 -3.268,4.494 -0.635,0.803 -1.044,1.762 -1.586,2.628 -0.54,-0.866 -0.948,-1.825 -1.584,-2.628 -1.149,-1.454 -2.355,-2.873 -3.267,-4.494 -2.56,-4.553 -1.34,-10.566 2.722,-13.935 0.71,0.034 1.426,0.055 2.147,0.055 C -1.407,0.053 -0.702,0.032 0,0" />
          </g>
        </g>
      </g>
    </g>
  </g>
</svg>
